<svg xmlns="http://www.w3.org/2000/svg" width="686" height="419" fill="none" viewBox="0 0 686 419">
  <path fill="#90100C" d="M337.502 74.13h-64.191V93h64.191V74.13ZM307.19.044H243v18.87h64.19V.043Zm.219 45.513H243v18.87h64.409v-18.87Z"/>
  <path fill="#90100C" d="M337.846.044h-18.869v92.719h18.869V.043ZM307.601 0h-18.87v63.982h18.87V0ZM261.87.044H243v92.719h18.87V.043Z"/>
  <path fill="#9F9E9E" d="M336.502 181.13h-64.191V200h64.191v-18.87Zm-30.312-74.086H242v18.869h64.19v-18.869Zm.219 45.513H242v18.869h64.409v-18.869Z"/>
  <path fill="#9F9E9E" d="M336.846 107.044h-18.869v92.719h18.869v-92.719ZM306.601 107h-18.87v63.982h18.87V107Zm-45.731.044H242v92.719h18.87v-92.719ZM444.502 74.13h-64.191V93h64.191V74.13ZM414.19.044H350v18.87h64.19V.043Zm.219 45.513H350v18.87h64.409v-18.87Z"/>
  <path fill="#9F9E9E" d="M444.846.044h-18.869v92.719h18.869V.043ZM414.601 0h-18.87v63.982h18.87V0ZM368.87.044H350v92.719h18.87V.043Z"/>
  <path fill="#90100C" d="M443.502 181.13h-64.191V200h64.191v-18.87Zm-30.312-74.086H349v18.869h64.19v-18.869Zm.219 45.513H349v18.869h64.409v-18.869Z"/>
  <path fill="#90100C" d="M443.846 107.044h-18.869v92.719h18.869v-92.719ZM413.601 107h-18.87v63.982h18.87V107Zm-45.731.044H349v92.719h18.87v-92.719Z"/>
  <path fill="#000" d="m60.236 271.78-.81-13.05h-1.35c-.18.27-.63.54-1.62.54-2.79 0-7.65-3.6-18.99-3.6-18.81 0-32.31 12.6-32.31 30.06 0 16.65 13.14 28.71 31.41 28.71 10.62 0 14.58-3.24 20.34-2.43 2.16-3.51 4.59-9.09 5.76-13.14h-1.71c-6.12 10.89-14.85 13.32-21.96 13.32-13.68 0-25.38-11.97-25.38-28.26 0-15.12 9.36-26.01 24.39-26.01 9.81 0 17.55 5.49 20.52 13.86h1.71Zm8.327 21.15c0 15.12 11.7 21.15 21.51 21.15 9.9 0 21.51-6.03 21.51-21.15 0-13.86-11.07-20.61-21.42-20.61-9.99 0-21.6 6.75-21.6 20.61Zm36 .09c0 14.4-7.74 19.53-14.58 19.53-3.51 0-6.75-1.26-9.45-3.96-2.52-2.52-4.95-6.48-4.95-16.38 0-9.45 5.04-18.36 14.31-18.36 7.74 0 14.67 5.31 14.67 19.17Zm22.924 2.97h5.76c.81 1.35 4.68 8.46 5.67 9.99 3.78 5.94 7.56 7.38 13.77 7.65v-1.62c-3.33-.54-5.04-1.8-7.92-8.01-3.24-6.93-3.78-7.47-5.49-9 2.88-.99 8.55-2.97 8.55-10.35 0-9.45-9.54-11.25-17.46-11.25-6.39 0-12.06.72-15.84 1.08v1.62c4.5.27 5.04.27 5.76 1.26.72.9.72 2.34.72 3.33v25.47c0 3.42-.54 5.22-4.95 5.22h-1.44V313h19.89v-1.62h-2.61c-3.87 0-4.41-1.08-4.41-6.39v-9Zm0-20.61c.9-.09 2.43-.18 3.96-.18 3.96 0 9.63 2.07 9.63 9.63 0 7.38-4.77 9.54-9.54 9.54h-4.05v-18.99Zm24.184 7.2h1.53c1.8-6.3 2.07-6.48 5.58-6.48h8.1v29.97c0 4.77-.63 5.04-7.38 5.31V313h21.24v-1.62c-6.75-.36-7.38-.54-7.38-5.67V276.1h7.47c4.14 0 4.95.81 6.21 6.48h1.44l-.72-10.08h-1.26c-.45 1.08-.9 1.35-3.33 1.35h-26.28c-.72 0-1.26 0-1.8-.18s-.9-.54-1.35-1.17h-1.26l-.81 10.08Zm51.049-6.75h9.81c4.41 0 5.85.63 6.84 6.57h1.62l-.36-8.55h-30.78v1.62c5.04-.09 6.39.63 6.39 5.22v25.56c0 3.69-.63 5.4-6.39 5.22V313h32.49l.81-9.54h-1.71c-1.71 6.75-3.78 7.29-7.83 7.29h-6.84c-3.87 0-4.05 0-4.05-3.87v-12.87h9.09c4.41 0 5.13.36 5.31 5.31h1.8v-12.15h-1.8c-.36 4.86-1.44 4.86-4.68 4.86h-9.72v-16.2Zm47.908 23.49 1.89 13.68h1.53c.36-.54.99-.99 1.8-.99 1.26 0 7.56 2.43 12.51 2.43 10.53 0 18.36-6.57 18.36-15.39 0-16.56-28.89-19.98-28.89-32.76 0-5.04 4.14-8.46 10.08-8.46 6.21 0 11.97 4.14 14.49 10.62h1.53l-1.53-11.43h-1.44c-.54.72-.9.9-1.62.9-3.15 0-4.68-2.25-12.24-2.25-9.18 0-16.02 5.58-16.02 13.05 0 15.75 28.89 19.71 28.89 32.67 0 7.11-6.39 10.62-12.42 10.62-7.02 0-13.32-4.68-15.21-12.69h-1.71Zm41.241-25.47v1.62c6.57.36 6.66 1.17 6.66 5.94v17.64c0 2.16 0 5.85 1.35 8.28 3.6 6.48 11.7 7.02 15.12 7.02 4.59 0 11.88-1.35 14.67-7.02 1.62-3.24 1.62-7.74 1.62-10.44v-16.2c0-3.69.54-5.4 6.48-5.22v-1.62h-16.11v1.62c6.93.18 6.93 1.17 6.93 7.29v13.32c0 2.61 0 6.57-.99 8.91-2.07 5.22-7.74 6.21-11.43 6.21-6.21 0-9-2.97-9.99-4.86-1.26-2.34-1.26-5.49-1.26-8.37v-16.38c0-4.59.9-5.85 6.84-6.12v-1.62h-19.89Zm68.104 37.53c-7.2-.18-7.65-.63-7.65-5.04v-10.53c1.62.45 3.87 1.08 6.3 1.08 7.11 0 13.41-4.68 13.41-12.06 0-11.43-12.96-11.43-16.56-11.43-6.21 0-13.14.72-16.47 1.08v1.62c.54-.09 1.8-.18 2.79-.18 3.96 0 3.96 2.43 3.96 4.41v25.83c0 3.78-.63 5.4-6.39 5.22V313h20.61v-1.62Zm-7.65-36.09c.81-.09 2.25-.18 3.6-.18 8.28 0 9.36 6.84 9.36 9.9 0 1.17-.09 9.99-8.28 9.99-1.98 0-3.33-.36-4.68-.72v-18.99Zm33.702.54h9.81c4.41 0 5.85.63 6.84 6.57h1.62l-.36-8.55h-30.78v1.62c5.04-.09 6.39.63 6.39 5.22v25.56c0 3.69-.63 5.4-6.39 5.22V313h32.49l.81-9.54h-1.71c-1.71 6.75-3.78 7.29-7.83 7.29h-6.84c-3.87 0-4.05 0-4.05-3.87v-12.87h9.09c4.41 0 5.13.36 5.31 5.31h1.8v-12.15h-1.8c-.36 4.86-1.44 4.86-4.68 4.86h-9.72v-16.2Zm37.667 20.16h5.76c.81 1.35 4.68 8.46 5.67 9.99 3.78 5.94 7.56 7.38 13.77 7.65v-1.62c-3.33-.54-5.04-1.8-7.92-8.01-3.24-6.93-3.78-7.47-5.49-9 2.88-.99 8.55-2.97 8.55-10.35 0-9.45-9.54-11.25-17.46-11.25-6.39 0-12.06.72-15.84 1.08v1.62c4.5.27 5.04.27 5.76 1.26.72.9.72 2.34.72 3.33v25.47c0 3.42-.54 5.22-4.95 5.22h-1.44V313h19.89v-1.62h-2.61c-3.87 0-4.41-1.08-4.41-6.39v-9Zm0-20.61c.9-.09 2.43-.18 3.96-.18 3.96 0 9.63 2.07 9.63 9.63 0 7.38-4.77 9.54-9.54 9.54h-4.05v-18.99Zm45.29-1.53h-19.71v1.62c5.58.36 6.84 1.08 6.84 6.84v22.05c0 6.12-.99 6.84-6.57 7.02V313h19.8v-1.62c-5.58-.36-6.84-1.08-6.84-6.84v-22.32c0-5.49 0-6.48 6.48-6.75v-1.62Zm5.083 19.08c0 15.12 11.7 21.15 21.51 21.15 9.9 0 21.51-6.03 21.51-21.15 0-13.86-11.07-20.61-21.42-20.61-9.99 0-21.6 6.75-21.6 20.61Zm36 .09c0 14.4-7.74 19.53-14.58 19.53-3.51 0-6.75-1.26-9.45-3.96-2.52-2.52-4.95-6.48-4.95-16.38 0-9.45 5.04-18.36 14.31-18.36 7.74 0 14.67 5.31 14.67 19.17Zm22.924 2.97h5.76c.81 1.35 4.68 8.46 5.67 9.99 3.78 5.94 7.56 7.38 13.77 7.65v-1.62c-3.33-.54-5.04-1.8-7.92-8.01-3.24-6.93-3.78-7.47-5.49-9 2.88-.99 8.55-2.97 8.55-10.35 0-9.45-9.54-11.25-17.46-11.25-6.39 0-12.06.72-15.84 1.08v1.62c4.5.27 5.04.27 5.76 1.26.72.9.72 2.34.72 3.33v25.47c0 3.42-.54 5.22-4.95 5.22h-1.44V313h19.89v-1.62h-2.61c-3.87 0-4.41-1.08-4.41-6.39v-9Zm0-20.61c.9-.09 2.43-.18 3.96-.18 3.96 0 9.63 2.07 9.63 9.63 0 7.38-4.77 9.54-9.54 9.54h-4.05v-18.99Zm58.417 29.34c0 5.22-2.25 6.57-7.11 6.57h-1.53V313h28.8c22.77 0 33.3-16.29 33.3-29.88 0-14.85-10.53-26.91-34.29-26.91-4.68 0-10.17.09-15.12.27-4.95.18-9.36.36-12.69.54v1.71h1.8c5.31 0 6.84 1.44 6.84 7.29v38.7Zm7.47-46.44c1.08-.09 3.51-.36 7.2-.36 12.6 0 18.99 3.15 23.13 7.29 5.31 5.31 7.2 12.69 7.2 19.35 0 9.27-4.14 16.2-7.47 19.44-5.58 5.58-10.62 7.29-22.68 7.29-7.11 0-7.38-1.26-7.38-4.95v-48.06Zm64.149 17.55h9.81c4.41 0 5.85.63 6.84 6.57h1.62l-.36-8.55h-30.78v1.62c5.04-.09 6.39.63 6.39 5.22v25.56c0 3.69-.63 5.4-6.39 5.22V313h32.49l.81-9.54h-1.71c-1.71 6.75-3.78 7.29-7.83 7.29h-6.84c-3.87 0-4.05 0-4.05-3.87v-12.87h9.09c4.41 0 5.13.36 5.31 5.31h1.8v-12.15h-1.8c-.36 4.86-1.44 4.86-4.68 4.86h-9.72v-16.2ZM45.405 345.3c0-4.77 1.26-6.39 7.02-6.57v-1.71h-22.77v1.71h.99c6.48 0 7.29 1.8 7.29 9.72v48.06c0 9.99-3.06 13.23-7.38 13.23-3.78 0-6.21-4.23-9.27-4.23-1.8 0-3.24 1.71-3.24 3.6 0 2.79 3.78 4.86 8.73 4.86 11.25 0 18.63-12.15 18.63-30.24V345.3Zm7.963 8.55v1.62c6.57.36 6.66 1.17 6.66 5.94v17.64c0 2.16 0 5.85 1.35 8.28 3.6 6.48 11.7 7.02 15.12 7.02 4.59 0 11.88-1.35 14.67-7.02 1.62-3.24 1.62-7.74 1.62-10.44v-16.2c0-3.69.54-5.4 6.48-5.22v-1.62h-16.11v1.62c6.93.18 6.93 1.17 6.93 7.29v13.32c0 2.61 0 6.57-.99 8.91-2.07 5.22-7.74 6.21-11.43 6.21-6.21 0-9-2.97-9.99-4.86-1.26-2.34-1.26-5.49-1.26-8.37v-16.38c0-4.59.9-5.85 6.84-6.12v-1.62h-19.89Zm72.741-.18h-1.62c-.45.63-.81.81-1.08.81-.45 0-2.34-.81-2.7-.9-1.71-.63-3.69-.99-5.76-.99-5.4 0-10.53 4.23-10.53 10.08 0 3.42 1.44 6.93 9.36 11.88 6.57 4.05 9.99 6.48 9.99 11.07 0 5.31-5.04 6.93-7.56 6.93-1.8 0-7.38-1.08-10.08-8.82h-1.8l1.08 9.72h1.44c.18-.54.45-.81 1.26-.81.27 0 .72.09 1.08.18 4.59 1.26 5.49 1.53 7.74 1.53 7.38 0 12.06-5.13 12.06-11.16 0-6.57-5.49-10.17-7.83-11.7-9.09-5.94-11.52-7.56-11.52-11.25 0-2.97 2.52-5.76 6.21-5.76 1.89 0 4.41.9 6.39 2.97 1.71 1.71 2.43 3.6 3.06 5.22h1.71l-.9-9Zm5.127 8.91h1.53c1.8-6.3 2.07-6.48 5.58-6.48h8.1v29.97c0 4.77-.63 5.04-7.38 5.31V393h21.24v-1.62c-6.75-.36-7.38-.54-7.38-5.67V356.1h7.47c4.14 0 4.95.81 6.21 6.48h1.44l-.72-10.08h-1.26c-.45 1.08-.9 1.35-3.33 1.35h-26.28c-.72 0-1.26 0-1.8-.18s-.9-.54-1.35-1.17h-1.26l-.81 10.08Zm59.647-8.73h-19.71v1.62c5.58.36 6.84 1.08 6.84 6.84v22.05c0 6.12-.99 6.84-6.57 7.02V393h19.8v-1.62c-5.58-.36-6.84-1.08-6.84-6.84v-22.32c0-5.49 0-6.48 6.48-6.75v-1.62Zm43.244.9h-1.44c-.45.45-.81.81-1.89.81-2.07 0-5.49-3.15-12.33-3.15-10.26 0-21.6 8.01-21.6 21.42 0 11.61 7.74 20.07 20.88 20.07 1.53 0 2.52-.09 7.74-.54 2.16-.18 3.15-.18 5.13 0 2.88-4.68 3.69-6.3 5.04-9.99h-1.53c-1.98 2.52-7.2 9-16.02 9-6.48 0-14.13-6.12-14.13-18.18 0-10.71 5.85-19.89 15.03-19.89 8.91 0 12.42 6.48 14.13 9.81h1.35l-.36-9.36Zm24.524-.9h-19.71v1.62c5.58.36 6.84 1.08 6.84 6.84v22.05c0 6.12-.99 6.84-6.57 7.02V393h19.8v-1.62c-5.58-.36-6.84-1.08-6.84-6.84v-22.32c0-5.49 0-6.48 6.48-6.75v-1.62Zm20.293-1.26.9 2.61-11.16 28.62c-2.07 5.13-2.61 6.66-7.2 7.56V393h15.48v-1.62c-3.24-.36-6.21-.63-6.21-3.42 0-2.25 1.08-4.95 1.71-6.57l2.07-5.22h12.96l2.79 7.56c.63 1.71 1.26 3.6 1.26 4.95 0 2.52-3.06 2.61-6.12 2.7V393h18.81v-1.62c-4.68-.27-4.95-.99-6.48-5.31l-12.33-33.48h-6.48Zm2.25 6.3 5.4 14.67h-11.07l5.67-14.67Zm56.593 25.83c0 5.22-2.25 6.57-7.11 6.57h-1.53V393h28.8c22.77 0 33.3-16.29 33.3-29.88 0-14.85-10.53-26.91-34.29-26.91-4.68 0-10.17.09-15.12.27-4.95.18-9.36.36-12.69.54v1.71h1.8c5.31 0 6.84 1.44 6.84 7.29v38.7Zm7.47-46.44c1.08-.09 3.51-.36 7.2-.36 12.6 0 18.99 3.15 23.13 7.29 5.31 5.31 7.2 12.69 7.2 19.35 0 9.27-4.14 16.2-7.47 19.44-5.58 5.58-10.62 7.29-22.68 7.29-7.11 0-7.38-1.26-7.38-4.95v-48.06Zm64.149 17.55h9.81c4.41 0 5.85.63 6.84 6.57h1.62l-.36-8.55h-30.78v1.62c5.04-.09 6.39.63 6.39 5.22v25.56c0 3.69-.63 5.4-6.39 5.22V393h32.49l.81-9.54h-1.71c-1.71 6.75-3.78 7.29-7.83 7.29h-6.84c-3.87 0-4.05 0-4.05-3.87v-12.87h9.09c4.41 0 5.13.36 5.31 5.31h1.8v-12.15h-1.8c-.36 4.86-1.44 4.86-4.68 4.86h-9.72v-16.2Zm61.948 12.78c2.7.54 4.95.72 7.65.72 13.32 0 21.78-6.66 21.78-17.19 0-6.93-4.32-15.93-23.13-15.93-2.43 0-6.75.09-11.16.27-4.41.18-8.82.45-11.34.54v1.71h4.5c3.15 0 4.23 1.44 4.23 4.77v42.57c0 4.23-1.35 5.22-6.03 5.22h-1.26V393h24.93v-1.71h-2.97c-5.67 0-7.2-1.89-7.2-6.93v-15.75Zm0-30.33c2.16-.36 4.14-.36 6.21-.36 11.97 0 14.76 6.93 14.76 13.95 0 9.09-6.3 15.75-16.11 15.75-1.71 0-3.69-.45-4.86-.72v-28.62Zm41.478 14.31.9 2.61-11.16 28.62c-2.07 5.13-2.61 6.66-7.2 7.56V393h15.48v-1.62c-3.24-.36-6.21-.63-6.21-3.42 0-2.25 1.08-4.95 1.71-6.57l2.07-5.22h12.96l2.79 7.56c.63 1.71 1.26 3.6 1.26 4.95 0 2.52-3.06 2.61-6.12 2.7V393h18.81v-1.62c-4.68-.27-4.95-.99-6.48-5.31l-12.33-33.48h-6.48Zm2.25 6.3 5.4 14.67h-11.07l5.67-14.67Zm46.459-5.22h-1.62c-.45.63-.81.81-1.08.81-.45 0-2.34-.81-2.7-.9-1.71-.63-3.69-.99-5.76-.99-5.4 0-10.53 4.23-10.53 10.08 0 3.42 1.44 6.93 9.36 11.88 6.57 4.05 9.99 6.48 9.99 11.07 0 5.31-5.04 6.93-7.56 6.93-1.8 0-7.38-1.08-10.08-8.82h-1.8l1.08 9.72h1.44c.18-.54.45-.81 1.26-.81.27 0 .72.09 1.08.18 4.59 1.26 5.49 1.53 7.74 1.53 7.38 0 12.06-5.13 12.06-11.16 0-6.57-5.49-10.17-7.83-11.7-9.09-5.94-11.52-7.56-11.52-11.25 0-2.97 2.52-5.76 6.21-5.76 1.89 0 4.41.9 6.39 2.97 1.71 1.71 2.43 3.6 3.06 5.22h1.71l-.9-9Zm44.117 1.08h-1.44c-.45.45-.81.81-1.89.81-2.07 0-5.49-3.15-12.33-3.15-10.26 0-21.6 8.01-21.6 21.42 0 11.61 7.74 20.07 20.88 20.07 1.53 0 2.52-.09 7.74-.54 2.16-.18 3.15-.18 5.13 0 2.88-4.68 3.69-6.3 5.04-9.99h-1.53c-1.98 2.52-7.2 9-16.02 9-6.48 0-14.13-6.12-14.13-18.18 0-10.71 5.85-19.89 15.03-19.89 8.91 0 12.42 6.48 14.13 9.81h1.35l-.36-9.36Zm5.216 18.18c0 15.12 11.7 21.15 21.51 21.15 9.9 0 21.51-6.03 21.51-21.15 0-13.86-11.07-20.61-21.42-20.61-9.99 0-21.6 6.75-21.6 20.61Zm36 .09c0 14.4-7.74 19.53-14.58 19.53-3.51 0-6.75-1.26-9.45-3.96-2.52-2.52-4.95-6.48-4.95-16.38 0-9.45 5.04-18.36 14.31-18.36 7.74 0 14.67 5.31 14.67 19.17Z"/>
</svg>
