<svg xmlns="http://www.w3.org/2000/svg" width="1125" height="201" fill="none" viewBox="0 0 1125 201">
  <path fill="#90100C" d="M95.501 74.13h-64.19V93h64.19V74.13ZM65.19.044H1v18.87h64.19V.043Zm.219 45.513H1v18.87h64.409v-18.87Z"/>
  <path fill="#90100C" d="M95.846.044h-18.87v92.719h18.87V.043ZM65.6 0H46.732v63.982h18.87V0ZM19.87.044H1v92.719h18.87V.043Z"/>
  <path fill="#9F9E9E" d="M94.501 181.13h-64.19V200h64.19v-18.87ZM64.19 107.044H0v18.869h64.19v-18.869Zm.219 45.513H0v18.869h64.409v-18.869Z"/>
  <path fill="#9F9E9E" d="M94.846 107.044h-18.87v92.719h18.87v-92.719ZM64.6 107H45.732v63.982h18.87V107Zm-45.73.044H0v92.719h18.87v-92.719ZM202.502 74.13h-64.191V93h64.191V74.13ZM172.19.044H108v18.87h64.19V.043Zm.219 45.513H108v18.87h64.409v-18.87Z"/>
  <path fill="#9F9E9E" d="M202.846.044h-18.869v92.719h18.869V.043ZM172.601 0h-18.87v63.982h18.87V0ZM126.87.044H108v92.719h18.87V.043Z"/>
  <path fill="#90100C" d="M201.502 181.13h-64.191V200h64.191v-18.87Zm-30.312-74.086H107v18.869h64.19v-18.869Zm.219 45.513H107v18.869h64.409v-18.869Z"/>
  <path fill="#90100C" d="M201.846 107.044h-18.869v92.719h18.869v-92.719ZM171.601 107h-18.87v63.982h18.87V107Zm-45.731.044H107v92.719h18.87v-92.719Z"/>
  <path fill="#1E293B" d="m321.04 24.62-.99-15.95h-1.65c-.22.33-.77.66-1.98.66-3.41 0-9.35-4.4-23.21-4.4-22.99 0-39.49 15.4-39.49 36.74 0 20.35 16.06 35.09 38.39 35.09 12.98 0 17.82-3.96 24.86-2.97 2.64-4.29 5.61-11.11 7.04-16.06h-2.09c-7.48 13.31-18.15 16.28-26.84 16.28-16.72 0-31.02-14.63-31.02-34.54 0-18.48 11.44-31.79 29.81-31.79 11.99 0 21.45 6.71 25.08 16.94h2.09Zm12.377 25.85c0 18.48 14.3 25.85 26.29 25.85 12.1 0 26.29-7.37 26.29-25.85 0-16.94-13.53-25.19-26.18-25.19-12.21 0-26.4 8.25-26.4 25.19Zm44 .11c0 17.6-9.46 23.87-17.82 23.87-4.29 0-8.25-1.54-11.55-4.84-3.08-3.08-6.05-7.92-6.05-20.02 0-11.55 6.16-22.44 17.49-22.44 9.46 0 17.93 6.49 17.93 23.43Zm30.218 3.63h7.04c.99 1.65 5.72 10.34 6.93 12.21 4.62 7.26 9.24 9.02 16.83 9.35v-1.98c-4.07-.66-6.16-2.2-9.68-9.79-3.96-8.47-4.62-9.13-6.71-11 3.52-1.21 10.45-3.63 10.45-12.65 0-11.55-11.66-13.75-21.34-13.75-7.81 0-14.74.88-19.36 1.32v1.98c5.5.33 6.16.33 7.04 1.54.88 1.1.88 2.86.88 4.07v31.13c0 4.18-.66 6.38-6.05 6.38h-1.76V75h24.31v-1.98h-3.19c-4.73 0-5.39-1.32-5.39-7.81v-11Zm0-25.19c1.1-.11 2.97-.22 4.84-.22 4.84 0 11.77 2.53 11.77 11.77 0 9.02-5.83 11.66-11.66 11.66h-4.95V29.02Zm31.758 8.8h1.87c2.2-7.7 2.53-7.92 6.82-7.92h9.9v36.63c0 5.83-.77 6.16-9.02 6.49V75h25.96v-1.98c-8.25-.44-9.02-.66-9.02-6.93V29.9h9.13c5.06 0 6.05.99 7.59 7.92h1.76l-.88-12.32h-1.54c-.55 1.32-1.1 1.65-4.07 1.65h-32.12c-.88 0-1.54 0-2.2-.22-.66-.22-1.1-.66-1.65-1.43h-1.54l-.99 12.32Zm64.594-8.25h11.99c5.39 0 7.15.77 8.36 8.03h1.98l-.44-10.45h-37.62v1.98c6.16-.11 7.81.77 7.81 6.38v31.24c0 4.51-.77 6.6-7.81 6.38V75h39.71l.99-11.66h-2.09c-2.09 8.25-4.62 8.91-9.57 8.91h-8.36c-4.73 0-4.95 0-4.95-4.73V51.79h11.11c5.39 0 6.27.44 6.49 6.49h2.2V43.43h-2.2c-.44 5.94-1.76 5.94-5.72 5.94h-11.88v-19.8Zm62.955 28.71 2.31 16.72h1.87c.44-.66 1.21-1.21 2.2-1.21 1.54 0 9.24 2.97 15.29 2.97 12.87 0 22.44-8.03 22.44-18.81 0-20.24-35.31-24.42-35.31-40.04 0-6.16 5.06-10.34 12.32-10.34 7.59 0 14.63 5.06 17.71 12.98h1.87l-1.87-13.97h-1.76c-.66.88-1.1 1.1-1.98 1.1-3.85 0-5.72-2.75-14.96-2.75-11.22 0-19.58 6.82-19.58 15.95 0 19.25 35.31 24.09 35.31 39.93 0 8.69-7.81 12.98-15.18 12.98-8.58 0-16.28-5.72-18.59-15.51h-2.09Zm52.605-31.13v1.98c8.03.44 8.14 1.43 8.14 7.26v21.56c0 2.64 0 7.15 1.65 10.12 4.4 7.92 14.3 8.58 18.48 8.58 5.61 0 14.52-1.65 17.93-8.58 1.98-3.96 1.98-9.46 1.98-12.76v-19.8c0-4.51.66-6.6 7.92-6.38v-1.98h-19.69v1.98c8.47.22 8.47 1.43 8.47 8.91v16.28c0 3.19 0 8.03-1.21 10.89-2.53 6.38-9.46 7.59-13.97 7.59-7.59 0-11-3.63-12.21-5.94-1.54-2.86-1.54-6.71-1.54-10.23V36.61c0-5.61 1.1-7.15 8.36-7.48v-1.98h-24.31Zm85.439 45.87c-8.8-.22-9.35-.77-9.35-6.16V53.99c1.98.55 4.73 1.32 7.7 1.32 8.69 0 16.39-5.72 16.39-14.74 0-13.97-15.84-13.97-20.24-13.97-7.59 0-16.06.88-20.13 1.32v1.98c.66-.11 2.2-.22 3.41-.22 4.84 0 4.84 2.97 4.84 5.39v31.57c0 4.62-.77 6.6-7.81 6.38V75h25.19v-1.98Zm-9.35-44.11c.99-.11 2.75-.22 4.4-.22 10.12 0 11.44 8.36 11.44 12.1 0 1.43-.11 12.21-10.12 12.21-2.42 0-4.07-.44-5.72-.88V28.91Zm43.39.66h11.99c5.39 0 7.15.77 8.36 8.03h1.98l-.44-10.45h-37.62v1.98c6.16-.11 7.81.77 7.81 6.38v31.24c0 4.51-.77 6.6-7.81 6.38V75h39.71l.99-11.66h-2.09c-2.09 8.25-4.62 8.91-9.57 8.91h-8.36c-4.73 0-4.95 0-4.95-4.73V51.79h11.11c5.39 0 6.27.44 6.49 6.49h2.2V43.43h-2.2c-.44 5.94-1.76 5.94-5.72 5.94h-11.88v-19.8Zm48.238 24.64h7.04c.99 1.65 5.72 10.34 6.93 12.21 4.62 7.26 9.24 9.02 16.83 9.35v-1.98c-4.07-.66-6.16-2.2-9.68-9.79-3.96-8.47-4.62-9.13-6.71-11 3.52-1.21 10.45-3.63 10.45-12.65 0-11.55-11.66-13.75-21.34-13.75-7.81 0-14.74.88-19.36 1.32v1.98c5.5.33 6.16.33 7.04 1.54.88 1.1.88 2.86.88 4.07v31.13c0 4.18-.66 6.38-6.05 6.38h-1.76V75h24.31v-1.98h-3.19c-4.73 0-5.39-1.32-5.39-7.81v-11Zm0-25.19c1.1-.11 2.97-.22 4.84-.22 4.84 0 11.77 2.53 11.77 11.77 0 9.02-5.83 11.66-11.66 11.66h-4.95V29.02Zm57.554-1.87h-24.09v1.98c6.82.44 8.36 1.32 8.36 8.36v26.95c0 7.48-1.21 8.36-8.03 8.58V75h24.2v-1.98c-6.82-.44-8.36-1.32-8.36-8.36V37.38c0-6.71 0-7.92 7.92-8.25v-1.98Zm8.413 23.32c0 18.48 14.3 25.85 26.29 25.85 12.1 0 26.29-7.37 26.29-25.85 0-16.94-13.53-25.19-26.18-25.19-12.21 0-26.4 8.25-26.4 25.19Zm44 .11c0 17.6-9.46 23.87-17.82 23.87-4.29 0-8.25-1.54-11.55-4.84-3.08-3.08-6.05-7.92-6.05-20.02 0-11.55 6.16-22.44 17.49-22.44 9.46 0 17.93 6.49 17.93 23.43Zm30.218 3.63h7.04c.99 1.65 5.72 10.34 6.93 12.21 4.62 7.26 9.24 9.02 16.83 9.35v-1.98c-4.07-.66-6.16-2.2-9.68-9.79-3.96-8.47-4.62-9.13-6.71-11 3.52-1.21 10.45-3.63 10.45-12.65 0-11.55-11.66-13.75-21.34-13.75-7.81 0-14.74.88-19.36 1.32v1.98c5.5.33 6.16.33 7.04 1.54.88 1.1.88 2.86.88 4.07v31.13c0 4.18-.66 6.38-6.05 6.38h-1.76V75h24.31v-1.98h-3.19c-4.73 0-5.39-1.32-5.39-7.81v-11Zm0-25.19c1.1-.11 2.97-.22 4.84-.22 4.84 0 11.77 2.53 11.77 11.77 0 9.02-5.83 11.66-11.66 11.66h-4.95V29.02Zm75.801 35.86c0 6.38-2.75 8.03-8.693 8.03h-1.87V75h35.203c27.83 0 40.7-19.91 40.7-36.52 0-18.15-12.87-32.89-41.91-32.89-5.72 0-12.43.11-18.48.33-6.05.22-11.443.44-15.513.66v2.09h2.2c6.493 0 8.363 1.76 8.363 8.91v47.3Zm9.13-56.76c1.32-.11 4.29-.44 8.8-.44 15.4 0 23.21 3.85 28.27 8.91 6.49 6.49 8.8 15.51 8.8 23.65 0 11.33-5.06 19.8-9.13 23.76-6.82 6.82-12.98 8.91-27.72 8.91-8.69 0-9.02-1.54-9.02-6.05V8.12Zm80.6 21.45h11.99c5.39 0 7.15.77 8.36 8.03h1.98l-.44-10.45h-37.62v1.98c6.16-.11 7.81.77 7.81 6.38v31.24c0 4.51-.77 6.6-7.81 6.38V75h39.71l.99-11.66h-2.09c-2.09 8.25-4.62 8.91-9.57 8.91h-8.36c-4.73 0-4.95 0-4.95-4.73V51.79h11.11c5.39 0 6.27.44 6.49 6.49h2.2V43.43h-2.2c-.44 5.94-1.76 5.94-5.72 5.94h-11.88v-19.8ZM269.45 116.7c0-5.83 1.54-7.81 8.58-8.03v-2.09H250.2v2.09h1.21c7.92 0 8.91 2.2 8.91 11.88v58.74c0 12.21-3.74 16.17-9.02 16.17-4.62 0-7.59-5.17-11.33-5.17-2.2 0-3.96 2.09-3.96 4.4 0 3.41 4.62 5.94 10.67 5.94 13.75 0 22.77-14.85 22.77-36.96V116.7Zm11.933 10.45v1.98c8.03.44 8.14 1.43 8.14 7.26v21.56c0 2.64 0 7.15 1.65 10.12 4.4 7.92 14.3 8.58 18.48 8.58 5.61 0 14.52-1.65 17.93-8.58 1.98-3.96 1.98-9.46 1.98-12.76v-19.8c0-4.51.66-6.6 7.92-6.38v-1.98h-19.69v1.98c8.47.22 8.47 1.43 8.47 8.91v16.28c0 3.19 0 8.03-1.21 10.89-2.53 6.38-9.46 7.59-13.97 7.59-7.59 0-11-3.63-12.21-5.94-1.54-2.86-1.54-6.71-1.54-10.23v-20.02c0-5.61 1.1-7.15 8.36-7.48v-1.98h-24.31Zm91.107-.22h-1.98c-.55.77-.99.99-1.32.99-.55 0-2.86-.99-3.3-1.1-2.09-.77-4.51-1.21-7.04-1.21-6.6 0-12.87 5.17-12.87 12.32 0 4.18 1.76 8.47 11.44 14.52 8.03 4.95 12.21 7.92 12.21 13.53 0 6.49-6.16 8.47-9.24 8.47-2.2 0-9.02-1.32-12.32-10.78h-2.2l1.32 11.88h1.76c.22-.66.55-.99 1.54-.99.33 0 .88.11 1.32.22 5.61 1.54 6.71 1.87 9.46 1.87 9.02 0 14.74-6.27 14.74-13.64 0-8.03-6.71-12.43-9.57-14.3-11.11-7.26-14.08-9.24-14.08-13.75 0-3.63 3.08-7.04 7.59-7.04 2.31 0 5.39 1.1 7.81 3.63 2.09 2.09 2.97 4.4 3.74 6.38h2.09l-1.1-11Zm8.466 10.89h1.87c2.2-7.7 2.53-7.92 6.82-7.92h9.9v36.63c0 5.83-.77 6.16-9.02 6.49V175h25.96v-1.98c-8.25-.44-9.02-.66-9.02-6.93V129.9h9.13c5.06 0 6.05.99 7.59 7.92h1.76l-.88-12.32h-1.54c-.55 1.32-1.1 1.65-4.07 1.65h-32.12c-.88 0-1.54 0-2.2-.22-.66-.22-1.1-.66-1.65-1.43h-1.54l-.99 12.32Zm75.102-10.67h-24.09v1.98c6.82.44 8.36 1.32 8.36 8.36v26.95c0 7.48-1.21 8.36-8.03 8.58V175h24.2v-1.98c-6.82-.44-8.36-1.32-8.36-8.36v-27.28c0-6.71 0-7.92 7.92-8.25v-1.98Zm55.053 1.1h-1.76c-.55.55-.99.99-2.31.99-2.53 0-6.71-3.85-15.07-3.85-12.54 0-26.4 9.79-26.4 26.18 0 14.19 9.46 24.53 25.52 24.53 1.87 0 3.08-.11 9.46-.66 2.64-.22 3.85-.22 6.27 0 3.52-5.72 4.51-7.7 6.16-12.21h-1.87c-2.42 3.08-8.8 11-19.58 11-7.92 0-17.27-7.48-17.27-22.22 0-13.09 7.15-24.31 18.37-24.31 10.89 0 15.18 7.92 17.27 11.99h1.65l-.44-11.44Zm32.174-1.1h-24.09v1.98c6.82.44 8.36 1.32 8.36 8.36v26.95c0 7.48-1.21 8.36-8.03 8.58V175h24.2v-1.98c-6.82-.44-8.36-1.32-8.36-8.36v-27.28c0-6.71 0-7.92 7.92-8.25v-1.98Zm27.003-1.54 1.1 3.19-13.64 34.98c-2.53 6.27-3.19 8.14-8.8 9.24V175h18.92v-1.98c-3.96-.44-7.59-.77-7.59-4.18 0-2.75 1.32-6.05 2.09-8.03l2.53-6.38h15.84l3.41 9.24c.77 2.09 1.54 4.4 1.54 6.05 0 3.08-3.74 3.19-7.48 3.3V175h22.99v-1.98c-5.72-.33-6.05-1.21-7.92-6.49l-15.07-40.92h-7.92Zm2.75 7.7 6.6 17.93h-13.53l6.93-17.93Zm73.568 31.57c0 6.38-2.75 8.03-8.69 8.03h-1.87V175h35.2c27.83 0 40.7-19.91 40.7-36.52 0-18.15-12.87-32.89-41.91-32.89-5.72 0-12.43.11-18.48.33-6.05.22-11.44.44-15.51.66v2.09h2.2c6.49 0 8.36 1.76 8.36 8.91v47.3Zm9.13-56.76c1.32-.11 4.29-.44 8.8-.44 15.4 0 23.21 3.85 28.27 8.91 6.49 6.49 8.8 15.51 8.8 23.65 0 11.33-5.06 19.8-9.13 23.76-6.82 6.82-12.98 8.91-27.72 8.91-8.69 0-9.02-1.54-9.02-6.05v-58.74Zm80.605 21.45h11.99c5.39 0 7.15.77 8.36 8.03h1.98l-.44-10.45h-37.62v1.98c6.16-.11 7.81.77 7.81 6.38v31.24c0 4.51-.77 6.6-7.81 6.38V175h39.71l.99-11.66h-2.09c-2.09 8.25-4.62 8.91-9.57 8.91h-8.36c-4.73 0-4.95 0-4.95-4.73v-15.73h11.11c5.39 0 6.27.44 6.49 6.49h2.2v-14.85h-2.2c-.44 5.94-1.76 5.94-5.72 5.94h-11.88v-19.8Zm80.114 15.62c3.3.66 6.05.88 9.35.88 16.28 0 26.62-8.14 26.62-21.01 0-8.47-5.28-19.47-28.27-19.47-2.97 0-8.25.11-13.64.33-5.39.22-10.78.55-13.86.66v2.09h5.5c3.85 0 5.17 1.76 5.17 5.83v52.03c0 5.17-1.65 6.38-7.37 6.38h-1.54V175h30.47v-2.09h-3.63c-6.93 0-8.8-2.31-8.8-8.47v-19.25Zm0-37.07c2.64-.44 5.06-.44 7.59-.44 14.63 0 18.04 8.47 18.04 17.05 0 11.11-7.7 19.25-19.69 19.25-2.09 0-4.51-.55-5.94-.88v-34.98Zm52.895 17.49 1.1 3.19-13.64 34.98c-2.53 6.27-3.19 8.14-8.8 9.24V175h18.92v-1.98c-3.96-.44-7.59-.77-7.59-4.18 0-2.75 1.32-6.05 2.09-8.03l2.53-6.38h15.84l3.41 9.24c.77 2.09 1.54 4.4 1.54 6.05 0 3.08-3.74 3.19-7.48 3.3V175h22.99v-1.98c-5.72-.33-6.05-1.21-7.92-6.49l-15.07-40.92h-7.92Zm2.75 7.7 6.6 17.93h-13.53l6.93-17.93Zm58.984-6.38h-1.98c-.55.77-.99.99-1.32.99-.55 0-2.86-.99-3.3-1.1-2.09-.77-4.51-1.21-7.04-1.21-6.6 0-12.87 5.17-12.87 12.32 0 4.18 1.76 8.47 11.44 14.52 8.03 4.95 12.21 7.92 12.21 13.53 0 6.49-6.16 8.47-9.24 8.47-2.2 0-9.02-1.32-12.32-10.78h-2.2l1.32 11.88h1.76c.22-.66.55-.99 1.54-.99.33 0 .88.11 1.32.22 5.61 1.54 6.71 1.87 9.46 1.87 9.02 0 14.74-6.27 14.74-13.64 0-8.03-6.71-12.43-9.57-14.3-11.11-7.26-14.08-9.24-14.08-13.75 0-3.63 3.08-7.04 7.59-7.04 2.31 0 5.39 1.1 7.81 3.63 2.09 2.09 2.97 4.4 3.74 6.38h2.09l-1.1-11Zm56.121 1.32h-1.76c-.55.55-.99.99-2.31.99-2.53 0-6.71-3.85-15.07-3.85-12.54 0-26.4 9.79-26.4 26.18 0 14.19 9.46 24.53 25.52 24.53 1.87 0 3.08-.11 9.46-.66 2.64-.22 3.85-.22 6.27 0 3.52-5.72 4.51-7.7 6.16-12.21h-1.87c-2.42 3.08-8.8 11-19.58 11-7.92 0-17.27-7.48-17.27-22.22 0-13.09 7.15-24.31 18.37-24.31 10.89 0 15.18 7.92 17.27 11.99h1.65l-.44-11.44Zm8.575 22.22c0 18.48 14.3 25.85 26.29 25.85 12.1 0 26.29-7.37 26.29-25.85 0-16.94-13.53-25.19-26.18-25.19-12.21 0-26.4 8.25-26.4 25.19Zm44 .11c0 17.6-9.46 23.87-17.82 23.87-4.29 0-8.25-1.54-11.55-4.84-3.08-3.08-6.05-7.92-6.05-20.02 0-11.55 6.16-22.44 17.49-22.44 9.46 0 17.93 6.49 17.93 23.43Z"/>
</svg>
